<svg xmlns="http://www.w3.org/2000/svg" xmlns:xlink="http://www.w3.org/1999/xlink" xmlns:lucid="lucid" width="1320" height="920"><g transform="translate(1800 3780)" lucid:page-tab-id="0_0"><path d="M-1806.87-3776.5H64v1322.83h-1870.87z" fill="#fff"/><path d="M-1780-3720v-34c0-3.3 2.7-6 6-6h314v40zM-1460-3760h320v40h-320zM-1140-3760h320v40h-320zM-820-3760h314c3.3 0 6 2.7 6 6v34h-320z" stroke="#5e5e5e" stroke-width="3" fill="#fff"/><path d="M-1460-2880h-314c-3.3 0-6-2.7-6-6v-834h320zM-1460-3720h320v840h-320zM-1140-3720h320v840h-320zM-500-3720v834c0 3.3-2.7 6-6 6h-314v-840z" stroke="#5e5e5e" stroke-width="3" fill="none"/><use xlink:href="#a" transform="matrix(1,0,0,1,-1780,-3760) translate(123.3888888888889 24)"/><use xlink:href="#b" transform="matrix(1,0,0,1,-1460,-3760) translate(91.16666666666669 24)"/><use xlink:href="#c" transform="matrix(1,0,0,1,-1460,-3760) translate(135.55555555555557 24)"/><use xlink:href="#d" transform="matrix(1,0,0,1,-1460,-3760) translate(180 24)"/><use xlink:href="#e" transform="matrix(1,0,0,1,-1140,-3760) translate(100.66666666666669 24)"/><use xlink:href="#f" transform="matrix(1,0,0,1,-1140,-3760) translate(169.44444444444446 24)"/><use xlink:href="#g" transform="matrix(1,0,0,1,-820,-3760) translate(131.19444444444446 24)"/><path d="M-1740-3694c0-3.3 2.7-6 6-6h148c3.3 0 6 2.7 6 6v248c0 3.3-2.7 6-6 6h-148c-3.3 0-6-2.7-6-6z" stroke="#5e5e5e" stroke-width="3" fill="#fff"/><use xlink:href="#h" transform="matrix(1,0,0,1,-1728,-3688) translate(10.861111111111121 111.875)"/><use xlink:href="#i" transform="matrix(1,0,0,1,-1728,-3688) translate(34.69444444444445 135.875)"/><path d="M-1420-3674c0-3.3 2.7-6 6-6h228c3.3 0 6 2.7 6 6v168c0 3.3-2.7 6-6 6h-228c-3.3 0-6-2.7-6-6z" stroke="#5e5e5e" stroke-width="3" fill="#fff"/><use xlink:href="#j" transform="matrix(1,0,0,1,-1408,-3668) translate(0 14.218749999999995)"/><use xlink:href="#k" transform="matrix(1,0,0,1,-1408,-3668) translate(0 31.996527777777764)"/><path d="M-1577.5-3669.27h137.5" stroke="#5e5e5e" stroke-width="2" fill="none"/><path d="M-1577.47-3668.27h-1.03v-2h1.03z" fill="#5e5e5e"/><path d="M-1424.74-3669.27l-14.26 4.64v-9.27z" stroke="#5e5e5e" stroke-width="2" fill="#5e5e5e"/><path d="M-1100-3641.58c0-3.32 2.7-6 6-6h248c3.3 0 6 2.68 6 6v108c0 3.3-2.7 6-6 6h-248c-3.3 0-6-2.7-6-6z" stroke="#5e5e5e" stroke-width="3" fill="#fff"/><use xlink:href="#l" transform="matrix(1,0,0,1,-1088,-3635.5830160409973) translate(0 14.218749999999995)"/><use xlink:href="#m" transform="matrix(1,0,0,1,-1088,-3635.5830160409973) translate(0 28.444444444444436)"/><use xlink:href="#n" transform="matrix(1,0,0,1,-1088,-3635.5830160409973) translate(49.555555555555536 28.444444444444436)"/><use xlink:href="#o" transform="matrix(1,0,0,1,-1088,-3635.5830160409973) translate(82.88888888888886 28.444444444444436)"/><use xlink:href="#p" transform="matrix(1,0,0,1,-1088,-3635.5830160409973) translate(116.18518518518513 28.444444444444436)"/><use xlink:href="#q" transform="matrix(1,0,0,1,-1088,-3635.5830160409973) translate(130.22222222222217 28.444444444444436)"/><use xlink:href="#r" transform="matrix(1,0,0,1,-1088,-3635.5830160409973) translate(156.11111111111106 28.444444444444436)"/><use xlink:href="#s" transform="matrix(1,0,0,1,-1088,-3635.5830160409973) translate(0 44.444444444444436)"/><use xlink:href="#t" transform="matrix(1,0,0,1,-1088,-3635.5830160409973) translate(79.88888888888884 44.444444444444436)"/><path d="M-1177.5-3641.76h57.5" stroke="#5e5e5e" stroke-width="2" fill="none"/><path d="M-1177.47-3640.76h-1.03v-2h1.03z" fill="#5e5e5e"/><path d="M-1104.74-3641.76l-14.26 4.64v-9.27z" stroke="#5e5e5e" stroke-width="2" fill="#5e5e5e"/><path d="M-1100-3394c0-3.3 2.7-6 6-6h148c3.3 0 6 2.7 6 6v88c0 3.3-2.7 6-6 6h-148c-3.3 0-6-2.7-6-6z" stroke="#5e5e5e" stroke-width="3" fill="#fff"/><use xlink:href="#u" transform="matrix(1,0,0,1,-1088,-3388) translate(0 14.218749999999995)"/><path d="M-1577.5-3377.17h10.17m10.16 0h20.34m10.16 0h20.34m10.16 0h20.34m10.16 0h20.34m10.16 0h20.34m10.16 0h20.34m10.16 0h20.34m10.16 0h20.34m10.16 0h20.34m10.16 0h20.34m10.16 0h20.34m10.16 0h20.34m10.16 0h20.33m10.17 0h20.33m10.17 0h10.17" stroke="#5e5e5e" stroke-width="2" fill="none"/><path d="M-1577.47-3376.17h-1.03v-2h1.03z" fill="#5e5e5e"/><path d="M-1104.74-3377.17l-14.26 4.63v-9.27z" stroke="#5e5e5e" stroke-width="2" fill="#5e5e5e"/><path d="M-1740-3394c0-3.3 2.7-6 6-6h148c3.3 0 6 2.7 6 6v108c0 3.3-2.7 6-6 6h-148c-3.3 0-6-2.7-6-6z" stroke="#5e5e5e" stroke-width="3" fill="#fff"/><use xlink:href="#v" transform="matrix(1,0,0,1,-1728,-3388) translate(19.16666666666667 40)"/><use xlink:href="#w" transform="matrix(1,0,0,1,-1728,-3388) translate(2.444444444444457 64)"/><use xlink:href="#x" transform="matrix(1,0,0,1,-1728,-3388) translate(61.33333333333334 64)"/><path d="M-1740-3216.5c0-3.32 2.7-6 6-6h148c3.3 0 6 2.68 6 6v108c0 3.3-2.7 6-6 6h-148c-3.3 0-6-2.7-6-6z" stroke="#5e5e5e" stroke-width="3" fill="#fff"/><use xlink:href="#y" transform="matrix(1,0,0,1,-1728,-3210.5039370078734) translate(2.5 40)"/><use xlink:href="#z" transform="matrix(1,0,0,1,-1728,-3210.5039370078734) translate(35.83333333333333 40)"/><use xlink:href="#A" transform="matrix(1,0,0,1,-1728,-3210.5039370078734) translate(48.55555555555556 64)"/><path d="M-782.5-3181.96H-1560" stroke="#5e5e5e" stroke-width="2" fill="none"/><path d="M-781.5-3180.96h-1.03v-2h1.03z" fill="#5e5e5e"/><path d="M-1575.26-3181.96l14.26-4.64v9.27z" stroke="#5e5e5e" stroke-width="2" fill="#5e5e5e"/><path d="M-1102.5-3560.75h-57.5" stroke="#5e5e5e" stroke-width="2" fill="none"/><path d="M-1101.5-3559.75h-1.03v-2h1.03z" fill="#5e5e5e"/><path d="M-1175.26-3560.75l14.26-4.64v9.28z" stroke="#5e5e5e" stroke-width="2" fill="#5e5e5e"/><path d="M-1422.5-3534.5H-1560" stroke="#5e5e5e" stroke-width="2" fill="none"/><path d="M-1421.5-3533.5h-1.03v-2h1.03z" fill="#5e5e5e"/><path d="M-1575.26-3534.5l14.26-4.64v9.27z" stroke="#5e5e5e" stroke-width="2" fill="#5e5e5e"/><path d="M-1660-3437.5v17.5" stroke="#5e5e5e" stroke-width="2" fill="none"/><path d="M-1659-3437.47h-2v-1.03h2z" fill="#5e5e5e"/><path d="M-1660-3404.74l-4.64-14.26h9.28z" stroke="#5e5e5e" stroke-width="2" fill="#5e5e5e"/><path d="M-937.5-3374.5h10.8m10.8 0h21.58m10.8 0h21.6m10.8 0h21.58m10.8 0h21.58m10.8 0h21.6m10.8 0h10.78l3.03.82 2.15 2.15.82 3.03v10.7m0 10.7v21.43m0 10.7v21.43m0 10.7v21.42m0 10.7v10.72" stroke="#5e5e5e" stroke-width="2" fill="none"/><path d="M-937.47-3373.5h-1.03v-2h1.03z" fill="#5e5e5e"/><path d="M-737.18-3224.74l-4.63-14.26h9.26z" stroke="#5e5e5e" stroke-width="2" fill="#5e5e5e"/><path d="M-1577.5-3129H-800" stroke="#5e5e5e" stroke-width="2" fill="none"/><path d="M-1577.47-3128h-1.03v-2h1.03z" fill="#5e5e5e"/><path d="M-784.74-3129l-14.26 4.63v-9.27z" stroke="#5e5e5e" stroke-width="2" fill="#5e5e5e"/><path d="M-837.5-3587.58h10.06m10.05 0h20.13m10.06 0h20.1m10.06 0h20.1m10.07 0h20.12m10.05 0h20.12m10.06 0h10.05l3.03.82 2.15 2.15.83 3.02v10.26m0 10.26v20.53m0 10.26v10.27" stroke="#5e5e5e" stroke-width="2" fill="none"/><path d="M-837.47-3586.58h-1.03v-2h1.03z" fill="#5e5e5e"/><path d="M-650.47-3504.74l-4.63-14.26h9.27z" stroke="#5e5e5e" stroke-width="2" fill="#5e5e5e"/><path d="M-710.47-3494c0-3.3 2.7-6 6-6h54c33.14 0 60 26.86 60 60s-26.86 60-60 60h-54c-3.3 0-6-2.7-6-6z" stroke="#5e5e5e" stroke-width="3" fill="#fff"/><g><use xlink:href="#B" transform="matrix(1,0,0,1,-705.46719160105,-3495) translate(36.111111111111114 46.9375)"/><use xlink:href="#C" transform="matrix(1,0,0,1,-705.46719160105,-3495) translate(31.138888888888893 70.9375)"/></g><path d="M-660-3377.5v9.17m0 9.16v18.34m0 9.16v18.34m0 9.16v18.34m0 9.16v18.34m0 9.16v9.17" stroke="#5e5e5e" stroke-width="2" fill="none"/><path d="M-659-3377.47h-2v-1.03h2z" fill="#5e5e5e"/><path d="M-660-3224.74l-4.64-14.26h9.28z" stroke="#5e5e5e" stroke-width="2" fill="#5e5e5e"/><path d="M-780-3214c0-3.3 2.7-6 6-6h228c3.3 0 6 2.7 6 6v188c0 3.3-2.7 6-6 6h-228c-3.3 0-6-2.7-6-6z" stroke="#5e5e5e" stroke-width="3" fill="#fff"/><g><use xlink:href="#D" transform="matrix(1,0,0,1,-768,-3208) translate(0 14.21875)"/><use xlink:href="#E" transform="matrix(1,0,0,1,-768,-3208) translate(0 31.99652777777778)"/><use xlink:href="#F" transform="matrix(1,0,0,1,-768,-3208) translate(0 49.77430555555556)"/><use xlink:href="#G" transform="matrix(1,0,0,1,-768,-3208) translate(0 65.77777777777779)"/><use xlink:href="#H" transform="matrix(1,0,0,1,-768,-3208) translate(9.462962962962964 65.77777777777779)"/><use xlink:href="#I" transform="matrix(1,0,0,1,-768,-3208) translate(54.401234567901234 65.77777777777779)"/><use xlink:href="#J" transform="matrix(1,0,0,1,-768,-3208) translate(66.45679012345678 65.77777777777779)"/><use xlink:href="#K" transform="matrix(1,0,0,1,-768,-3208) translate(88.0185185185185 65.77777777777779)"/><use xlink:href="#L" transform="matrix(1,0,0,1,-768,-3208) translate(114.679012345679 65.77777777777779)"/><use xlink:href="#M" transform="matrix(1,0,0,1,-768,-3208) translate(0 84.44444444444444)"/><use xlink:href="#N" transform="matrix(1,0,0,1,-768,-3208) translate(0 103.11111111111111)"/><use xlink:href="#O" transform="matrix(1,0,0,1,-768,-3208) translate(18.669704861111114 103.11111111111111)"/><use xlink:href="#P" transform="matrix(1,0,0,1,-768,-3208) translate(70.52155671296296 103.11111111111111)"/><use xlink:href="#Q" transform="matrix(1,0,0,1,-768,-3208) translate(116.32402584876543 103.11111111111111)"/><use xlink:href="#R" transform="matrix(1,0,0,1,-768,-3208) translate(162.9906925154321 103.11111111111111)"/><use xlink:href="#S" transform="matrix(1,0,0,1,-768,-3208) translate(0 121.77777777777779)"/><use xlink:href="#T" transform="matrix(1,0,0,1,-768,-3208) translate(38.845679012345684 121.77777777777779)"/><use xlink:href="#U" transform="matrix(1,0,0,1,-768,-3208) translate(73.4135802469136 121.77777777777779)"/><use xlink:href="#V" transform="matrix(1,0,0,1,-768,-3208) translate(108.75925925925928 121.77777777777779)"/><use xlink:href="#W" transform="matrix(1,0,0,1,-768,-3208) translate(0 140.44444444444446)"/><use xlink:href="#X" transform="matrix(1,0,0,1,-768,-3208) translate(9.462962962962964 140.44444444444446)"/><use xlink:href="#Y" transform="matrix(1,0,0,1,-768,-3208) translate(34.52469135802469 140.44444444444446)"/><use xlink:href="#W" transform="matrix(1,0,0,1,-768,-3208) translate(0 159.11111111111114)"/><use xlink:href="#Z" transform="matrix(1,0,0,1,-768,-3208) translate(9.462962962962964 159.11111111111114)"/><use xlink:href="#aa" transform="matrix(1,0,0,1,-768,-3208) translate(37.03086419753087 159.11111111111114)"/></g><defs><path fill="#333" d="M240 0l2-218c-23 76-54 145-80 218h-23L58-218 59 0H30v-248h44l77 211c21-75 51-140 76-211h43V0h-30" id="ab"/><path fill="#333" d="M141-36C126-15 110 5 73 4 37 3 15-17 15-53c-1-64 63-63 125-63 3-35-9-54-41-54-24 1-41 7-42 31l-33-3c5-37 33-52 76-52 45 0 72 20 72 64v82c-1 20 7 32 28 27v20c-31 9-61-2-59-35zM48-53c0 20 12 33 32 33 41-3 63-29 60-74-43 2-92-5-92 41" id="ac"/><path fill="#333" d="M114-163C36-179 61-72 57 0H25l-1-190h30c1 12-1 29 2 39 6-27 23-49 58-41v29" id="ad"/><path fill="#333" d="M145-31C134-9 116 4 85 4 32 4 16-35 15-94c0-59 17-99 70-100 32-1 48 14 60 33 0-11-1-24 2-32h30l-1 268h-32zM93-21c41 0 51-33 51-76s-8-73-50-73c-40 0-46 35-46 75s5 74 45 74" id="ae"/><path fill="#333" d="M100-194c63 0 86 42 84 106H49c0 40 14 67 53 68 26 1 43-12 49-29l28 8c-11 28-37 45-77 45C44 4 14-33 15-96c1-61 26-98 85-98zm52 81c6-60-76-77-97-28-3 7-6 17-6 28h103" id="af"/><path fill="#333" d="M59-47c-2 24 18 29 38 22v24C64 9 27 4 27-40v-127H5v-23h24l9-43h21v43h35v23H59v120" id="ag"/><g id="a"><use transform="matrix(0.055555555555555546,0,0,0.055555555555555546,0,0)" xlink:href="#ab"/><use transform="matrix(0.055555555555555546,0,0,0.055555555555555546,16.611111111111107,0)" xlink:href="#ac"/><use transform="matrix(0.055555555555555546,0,0,0.055555555555555546,27.722222222222214,0)" xlink:href="#ad"/><use transform="matrix(0.055555555555555546,0,0,0.055555555555555546,34.33333333333332,0)" xlink:href="#ae"/><use transform="matrix(0.055555555555555546,0,0,0.055555555555555546,45.44444444444443,0)" xlink:href="#af"/><use transform="matrix(0.055555555555555546,0,0,0.055555555555555546,56.555555555555536,0)" xlink:href="#ag"/><use transform="matrix(0.055555555555555546,0,0,0.055555555555555546,62.111111111111086,0)" xlink:href="#ac"/></g><path fill="#333" d="M96-169c-40 0-48 33-48 73s9 75 48 75c24 0 41-14 43-38l32 2c-6 37-31 61-74 61-59 0-76-41-82-99-10-93 101-131 147-64 4 7 5 14 7 22l-32 3c-4-21-16-35-41-35" id="ah"/><path fill="#333" d="M85-194c31 0 48 13 60 33l-1-100h32l1 261h-30c-2-10 0-23-3-31C134-8 116 4 85 4 32 4 16-35 15-94c0-66 23-100 70-100zm9 24c-40 0-46 34-46 75 0 40 6 74 45 74 42 0 51-32 51-76 0-42-9-74-50-73" id="ai"/><g id="b"><use transform="matrix(0.055555555555555546,0,0,0.055555555555555546,0,0)" xlink:href="#ah"/><use transform="matrix(0.055555555555555546,0,0,0.055555555555555546,9.999999999999998,0)" xlink:href="#ac"/><use transform="matrix(0.055555555555555546,0,0,0.055555555555555546,21.111111111111107,0)" xlink:href="#ad"/><use transform="matrix(0.055555555555555546,0,0,0.055555555555555546,27.722222222222218,0)" xlink:href="#ai"/></g><path fill="#333" d="M84 4C-5 8 30-112 23-190h32v120c0 31 7 50 39 49 72-2 45-101 50-169h31l1 190h-30c-1-10 1-25-2-33-11 22-28 36-60 37" id="aj"/><path fill="#333" d="M106-169C34-169 62-67 57 0H25v-261h32l-1 103c12-21 28-36 61-36 89 0 53 116 60 194h-32v-121c2-32-8-49-39-48" id="ak"/><g id="c"><use transform="matrix(0.055555555555555546,0,0,0.055555555555555546,0,0)" xlink:href="#ac"/><use transform="matrix(0.055555555555555546,0,0,0.055555555555555546,11.111111111111109,0)" xlink:href="#aj"/><use transform="matrix(0.055555555555555546,0,0,0.055555555555555546,22.222222222222218,0)" xlink:href="#ag"/><use transform="matrix(0.055555555555555546,0,0,0.055555555555555546,27.77777777777777,0)" xlink:href="#ak"/></g><path fill="#333" d="M115-194c55 1 70 41 70 98S169 2 115 4C84 4 66-9 55-30l1 105H24l-1-265h31l2 30c10-21 28-34 59-34zm-8 174c40 0 45-34 45-75s-6-73-45-74c-42 0-51 32-51 76 0 43 10 73 51 73" id="al"/><path fill="#333" d="M100-194c62-1 85 37 85 99 1 63-27 99-86 99S16-35 15-95c0-66 28-99 85-99zM99-20c44 1 53-31 53-75 0-43-8-75-51-75s-53 32-53 75 10 74 51 75" id="am"/><path fill="#333" d="M141 0L90-78 38 0H4l68-98-65-92h35l48 74 47-74h35l-64 92 68 98h-35" id="an"/><path fill="#333" d="M179-190L93 31C79 59 56 82 12 73V49c39 6 53-20 64-50L1-190h34L92-34l54-156h33" id="ao"/><g id="d"><use transform="matrix(0.055555555555555546,0,0,0.055555555555555546,0,0)" xlink:href="#al"/><use transform="matrix(0.055555555555555546,0,0,0.055555555555555546,11.111111111111109,0)" xlink:href="#ad"/><use transform="matrix(0.055555555555555546,0,0,0.055555555555555546,17.722222222222218,0)" xlink:href="#am"/><use transform="matrix(0.055555555555555546,0,0,0.055555555555555546,28.83333333333333,0)" xlink:href="#an"/><use transform="matrix(0.055555555555555546,0,0,0.055555555555555546,38.83333333333333,0)" xlink:href="#ao"/></g><path fill="#333" d="M30-248c118-7 216 8 213 122C240-48 200 0 122 0H30v-248zM63-27c89 8 146-16 146-99s-60-101-146-95v194" id="ap"/><path fill="#333" d="M24-231v-30h32v30H24zM-9 49c24 4 33-6 33-30v-209h32V24c2 40-23 58-65 49V49" id="aq"/><path fill="#333" d="M117-194c89-4 53 116 60 194h-32v-121c0-31-8-49-39-48C34-167 62-67 57 0H25l-1-190h30c1 10-1 24 2 32 11-22 29-35 61-36" id="ar"/><path fill="#333" d="M177-190C167-65 218 103 67 71c-23-6-38-20-44-43l32-5c15 47 100 32 89-28v-30C133-14 115 1 83 1 29 1 15-40 15-95c0-56 16-97 71-98 29-1 48 16 59 35 1-10 0-23 2-32h30zM94-22c36 0 50-32 50-73 0-42-14-75-50-75-39 0-46 34-46 75s6 73 46 73" id="as"/><g id="e"><use transform="matrix(0.055555555555555546,0,0,0.055555555555555546,0,0)" xlink:href="#ap"/><use transform="matrix(0.055555555555555546,0,0,0.055555555555555546,14.388888888888886,0)" xlink:href="#aq"/><use transform="matrix(0.055555555555555546,0,0,0.055555555555555546,18.777777777777775,0)" xlink:href="#ac"/><use transform="matrix(0.055555555555555546,0,0,0.055555555555555546,29.888888888888882,0)" xlink:href="#ar"/><use transform="matrix(0.055555555555555546,0,0,0.055555555555555546,40.99999999999999,0)" xlink:href="#as"/><use transform="matrix(0.055555555555555546,0,0,0.055555555555555546,52.1111111111111,0)" xlink:href="#am"/></g><path fill="#333" d="M108 0H70L1-190h34L89-25l56-165h34" id="at"/><path fill="#333" d="M24-231v-30h32v30H24zM24 0v-190h32V0H24" id="au"/><path fill="#333" d="M206 0h-36l-40-164L89 0H53L-1-190h32L70-26l43-164h34l41 164 42-164h31" id="av"/><path fill="#333" d="M135-143c-3-34-86-38-87 0 15 53 115 12 119 90S17 21 10-45l28-5c4 36 97 45 98 0-10-56-113-15-118-90-4-57 82-63 122-42 12 7 21 19 24 35" id="aw"/><g id="f"><use transform="matrix(0.055555555555555546,0,0,0.055555555555555546,0,0)" xlink:href="#at"/><use transform="matrix(0.055555555555555546,0,0,0.055555555555555546,9.999999999999998,0)" xlink:href="#au"/><use transform="matrix(0.055555555555555546,0,0,0.055555555555555546,14.388888888888886,0)" xlink:href="#af"/><use transform="matrix(0.055555555555555546,0,0,0.055555555555555546,25.499999999999993,0)" xlink:href="#av"/><use transform="matrix(0.055555555555555546,0,0,0.055555555555555546,39.88888888888888,0)" xlink:href="#aw"/></g><path fill="#333" d="M212-179c-10-28-35-45-73-45-59 0-87 40-87 99 0 60 29 101 89 101 43 0 62-24 78-52l27 14C228-24 195 4 139 4 59 4 22-46 18-125c-6-104 99-153 187-111 19 9 31 26 39 46" id="ax"/><path fill="#333" d="M24 0v-261h32V0H24" id="ay"/><g id="g"><use transform="matrix(0.055555555555555546,0,0,0.055555555555555546,0,0)" xlink:href="#ax"/><use transform="matrix(0.055555555555555546,0,0,0.055555555555555546,14.388888888888886,0)" xlink:href="#af"/><use transform="matrix(0.055555555555555546,0,0,0.055555555555555546,25.499999999999993,0)" xlink:href="#ay"/><use transform="matrix(0.055555555555555546,0,0,0.055555555555555546,29.888888888888882,0)" xlink:href="#af"/><use transform="matrix(0.055555555555555546,0,0,0.055555555555555546,40.99999999999999,0)" xlink:href="#ad"/><use transform="matrix(0.055555555555555546,0,0,0.055555555555555546,47.6111111111111,0)" xlink:href="#ao"/></g><path fill="#333" d="M9 0v-24l116-142H16v-24h144v24L44-24h123V0H9" id="az"/><g id="h"><use transform="matrix(0.055555555555555546,0,0,0.055555555555555546,0,0)" xlink:href="#ac"/><use transform="matrix(0.055555555555555546,0,0,0.055555555555555546,11.111111111111109,0)" xlink:href="#aj"/><use transform="matrix(0.055555555555555546,0,0,0.055555555555555546,22.222222222222218,0)" xlink:href="#ag"/><use transform="matrix(0.055555555555555546,0,0,0.055555555555555546,27.77777777777777,0)" xlink:href="#ak"/><use transform="matrix(0.055555555555555546,0,0,0.055555555555555546,38.88888888888888,0)" xlink:href="#am"/><use transform="matrix(0.055555555555555546,0,0,0.055555555555555546,49.999999999999986,0)" xlink:href="#ad"/><use transform="matrix(0.055555555555555546,0,0,0.055555555555555546,56.61111111111109,0)" xlink:href="#au"/><use transform="matrix(0.055555555555555546,0,0,0.055555555555555546,60.99999999999998,0)" xlink:href="#az"/><use transform="matrix(0.055555555555555546,0,0,0.055555555555555546,70.99999999999997,0)" xlink:href="#ac"/><use transform="matrix(0.055555555555555546,0,0,0.055555555555555546,82.11111111111109,0)" xlink:href="#ag"/><use transform="matrix(0.055555555555555546,0,0,0.055555555555555546,87.66666666666664,0)" xlink:href="#au"/><use transform="matrix(0.055555555555555546,0,0,0.055555555555555546,92.05555555555553,0)" xlink:href="#am"/><use transform="matrix(0.055555555555555546,0,0,0.055555555555555546,103.16666666666664,0)" xlink:href="#ar"/></g><g id="i"><use transform="matrix(0.055555555555555546,0,0,0.055555555555555546,0,0)" xlink:href="#ad"/><use transform="matrix(0.055555555555555546,0,0,0.055555555555555546,6.61111111111111,0)" xlink:href="#af"/><use transform="matrix(0.055555555555555546,0,0,0.055555555555555546,17.722222222222218,0)" xlink:href="#ae"/><use transform="matrix(0.055555555555555546,0,0,0.055555555555555546,28.83333333333333,0)" xlink:href="#aj"/><use transform="matrix(0.055555555555555546,0,0,0.055555555555555546,39.944444444444436,0)" xlink:href="#af"/><use transform="matrix(0.055555555555555546,0,0,0.055555555555555546,51.05555555555554,0)" xlink:href="#aw"/><use transform="matrix(0.055555555555555546,0,0,0.055555555555555546,61.05555555555554,0)" xlink:href="#ag"/></g><path fill="#333" d="M1034 0L896-382H333L196 0H0l510-1349h217L1228 0h-194zM847-531c-77-225-157-447-231-674-69 231-154 451-232 674h463" id="aA"/><path fill="#333" d="M528 20c-247 0-343-132-343-381v-721h180v686c-4 177 45 284 224 277 194-8 279-136 279-336v-627h181c3 360-6 732 6 1082H885c-4-54-7-126-8-185h-3C809-64 714 20 528 20" id="aB"/><path fill="#333" d="M682 16c-209 0-323-80-324-285v-671H190v-142h170l58-282h120v282h432v142H538v652c2 114 60 155 182 155 106 0 209-16 297-34v137C921-4 806 16 682 16" id="aC"/><path fill="#333" d="M648-963c-190 6-283 138-283 336V0H185v-1484h181c-2 197 6 404-9 587h3c62-120 159-205 339-205 242 0 351 135 350 381V0H868v-695c1-168-57-273-220-268" id="aD"/><path fill="#333" d="M615-1102c343 0 484 203 482 560-1 347-147 562-488 562-336 0-475-219-479-562-4-349 156-560 485-560zm-8 989c240 0 301-180 301-429 0-245-55-427-290-427-236 0-299 181-299 427 0 243 61 429 288 429" id="aE"/><path fill="#333" d="M839-1102c70 0 148 7 206 17v167c-112-18-268-36-363 15-129 69-208 203-208 395V0H294c-10-367 32-789-52-1082h171c21 75 41 161 48 250h5c67-152 152-270 373-270" id="aF"/><path fill="#333" d="M745-142h380V0H143v-142h422v-798H246v-142h499v940zM545-1292v-192h200v192H545" id="aG"/><path fill="#333" d="M147 0v-137l681-806H187v-139h844v137L349-139h719V0H147" id="aH"/><path fill="#333" d="M1000-272c3 95 12 159 101 161 21 0 41-3 59-7V-6c-44 10-86 16-139 16-141 2-191-84-197-217h-6C748-76 648 20 446 20c-207 0-318-120-318-322 0-266 194-348 454-354l236-4c12-191-40-305-222-305-140 0-220 47-232 172l-188-17c33-204 181-292 423-292 255 0 401 118 401 364v466zm-683-27c0 109 63 184 175 182 166-3 259-96 306-217 24-65 20-120 20-200-232 7-501-28-501 235" id="aI"/><path fill="#333" d="M706-1102c241 0 344 136 343 381V0H868v-695c1-168-57-273-220-268-190 6-283 138-283 336V0H185c-3-360 6-732-6-1082h170c4 54 7 126 8 185h3c63-121 164-204 346-205" id="aJ"/><path fill="#333" d="M713 0H515L10-1349h201C345-955 498-579 615-168c116-411 269-787 402-1181h201" id="aK"/><path fill="#333" d="M617-1102c355 0 481 238 477 599H322c5 222 84 388 301 388 144 0 244-59 284-166l158 45C1002-72 854 20 623 20c-342 0-490-220-490-568 0-346 151-554 484-554zm291 461c-18-192-90-328-289-328-194 0-287 128-295 328h584" id="aL"/><path fill="#333" d="M1018 0H814c-67-224-138-444-200-673C552-442 476-224 407 0H204L21-1082h178c43 310 105 601 126 933 54-225 128-425 193-638h193c63 212 134 415 185 638 22-336 90-622 136-933h176" id="aM"/><path fill="#333" d="M496 0v-299h235V0H496" id="aN"/><g id="j"><use transform="matrix(0.008680555555555552,0,0,0.008680555555555552,0,0)" xlink:href="#aA"/><use transform="matrix(0.008680555555555552,0,0,0.008680555555555552,10.668402777777773,0)" xlink:href="#aB"/><use transform="matrix(0.008680555555555552,0,0,0.008680555555555552,21.336805555555546,0)" xlink:href="#aC"/><use transform="matrix(0.008680555555555552,0,0,0.008680555555555552,32.00520833333332,0)" xlink:href="#aD"/><use transform="matrix(0.008680555555555552,0,0,0.008680555555555552,42.67361111111109,0)" xlink:href="#aE"/><use transform="matrix(0.008680555555555552,0,0,0.008680555555555552,53.342013888888864,0)" xlink:href="#aF"/><use transform="matrix(0.008680555555555552,0,0,0.008680555555555552,64.01041666666664,0)" xlink:href="#aG"/><use transform="matrix(0.008680555555555552,0,0,0.008680555555555552,74.67881944444441,0)" xlink:href="#aH"/><use transform="matrix(0.008680555555555552,0,0,0.008680555555555552,85.34722222222219,0)" xlink:href="#aI"/><use transform="matrix(0.008680555555555552,0,0,0.008680555555555552,96.01562499999994,0)" xlink:href="#aC"/><use transform="matrix(0.008680555555555552,0,0,0.008680555555555552,106.68402777777773,0)" xlink:href="#aG"/><use transform="matrix(0.008680555555555552,0,0,0.008680555555555552,117.3524305555555,0)" xlink:href="#aE"/><use transform="matrix(0.008680555555555552,0,0,0.008680555555555552,128.0208333333333,0)" xlink:href="#aJ"/><use transform="matrix(0.008680555555555552,0,0,0.008680555555555552,138.68923611111106,0)" xlink:href="#aK"/><use transform="matrix(0.008680555555555552,0,0,0.008680555555555552,149.35763888888883,0)" xlink:href="#aG"/><use transform="matrix(0.008680555555555552,0,0,0.008680555555555552,160.0260416666666,0)" xlink:href="#aL"/><use transform="matrix(0.008680555555555552,0,0,0.008680555555555552,170.69444444444437,0)" xlink:href="#aM"/><use transform="matrix(0.008680555555555552,0,0,0.008680555555555552,181.36284722222217,0)" xlink:href="#aN"/></g><path fill="#333" d="M-5 220v-96h1238v96H-5" id="aO"/><path fill="#333" d="M736-142h380V0H134v-142h422v-1200H267v-142h469v1342" id="aP"/><g id="k"><use transform="matrix(0.008680555555555552,0,0,0.008680555555555552,0,0)" xlink:href="#aI"/><use transform="matrix(0.008680555555555552,0,0,0.008680555555555552,10.668402777777773,0)" xlink:href="#aB"/><use transform="matrix(0.008680555555555552,0,0,0.008680555555555552,21.336805555555546,0)" xlink:href="#aC"/><use transform="matrix(0.008680555555555552,0,0,0.008680555555555552,32.00520833333332,0)" xlink:href="#aD"/><use transform="matrix(0.008680555555555552,0,0,0.008680555555555552,42.67361111111109,0)" xlink:href="#aE"/><use transform="matrix(0.008680555555555552,0,0,0.008680555555555552,53.342013888888864,0)" xlink:href="#aF"/><use transform="matrix(0.008680555555555552,0,0,0.008680555555555552,64.01041666666664,0)" xlink:href="#aG"/><use transform="matrix(0.008680555555555552,0,0,0.008680555555555552,74.67881944444441,0)" xlink:href="#aH"/><use transform="matrix(0.008680555555555552,0,0,0.008680555555555552,85.34722222222219,0)" xlink:href="#aL"/><use transform="matrix(0.008680555555555552,0,0,0.008680555555555552,96.01562499999994,0)" xlink:href="#aO"/><use transform="matrix(0.008680555555555552,0,0,0.008680555555555552,106.68402777777773,0)" xlink:href="#aE"/><use transform="matrix(0.008680555555555552,0,0,0.008680555555555552,117.3524305555555,0)" xlink:href="#aJ"/><use transform="matrix(0.008680555555555552,0,0,0.008680555555555552,128.0208333333333,0)" xlink:href="#aP"/><use transform="matrix(0.008680555555555552,0,0,0.008680555555555552,138.68923611111106,0)" xlink:href="#aG"/><use transform="matrix(0.008680555555555552,0,0,0.008680555555555552,149.35763888888883,0)" xlink:href="#aJ"/><use transform="matrix(0.008680555555555552,0,0,0.008680555555555552,160.0260416666666,0)" xlink:href="#aL"/></g><path fill="#333" d="M587-135c154 0 209-115 209-281v-777H485v-156h501v929C982-148 857 20 586 20c-254 0-368-136-410-370l187-31c24 134 77 246 224 246" id="aQ"/><path fill="#333" d="M202-1349h823v156H709v1037h316V0H202v-156h316v-1037H202v-156" id="aR"/><path fill="#333" d="M709-1193V0H519v-1193H76v-156h1076v156H709" id="aS"/><g id="l"><use transform="matrix(0.008680555555555552,0,0,0.008680555555555552,0,0)" xlink:href="#aQ"/><use transform="matrix(0.008680555555555552,0,0,0.008680555555555552,10.668402777777773,0)" xlink:href="#aR"/><use transform="matrix(0.008680555555555552,0,0,0.008680555555555552,21.336805555555546,0)" xlink:href="#aS"/><use transform="matrix(0.008680555555555552,0,0,0.008680555555555552,32.00520833333332,0)" xlink:href="#aA"/><use transform="matrix(0.008680555555555552,0,0,0.008680555555555552,42.67361111111109,0)" xlink:href="#aB"/><use transform="matrix(0.008680555555555552,0,0,0.008680555555555552,53.342013888888864,0)" xlink:href="#aC"/><use transform="matrix(0.008680555555555552,0,0,0.008680555555555552,64.01041666666664,0)" xlink:href="#aD"/><use transform="matrix(0.008680555555555552,0,0,0.008680555555555552,74.67881944444441,0)" xlink:href="#aE"/><use transform="matrix(0.008680555555555552,0,0,0.008680555555555552,85.34722222222219,0)" xlink:href="#aF"/><use transform="matrix(0.008680555555555552,0,0,0.008680555555555552,96.01562499999994,0)" xlink:href="#aG"/><use transform="matrix(0.008680555555555552,0,0,0.008680555555555552,106.68402777777773,0)" xlink:href="#aH"/><use transform="matrix(0.008680555555555552,0,0,0.008680555555555552,117.3524305555555,0)" xlink:href="#aI"/><use transform="matrix(0.008680555555555552,0,0,0.008680555555555552,128.0208333333333,0)" xlink:href="#aC"/><use transform="matrix(0.008680555555555552,0,0,0.008680555555555552,138.68923611111106,0)" xlink:href="#aG"/><use transform="matrix(0.008680555555555552,0,0,0.008680555555555552,149.35763888888883,0)" xlink:href="#aE"/><use transform="matrix(0.008680555555555552,0,0,0.008680555555555552,160.0260416666666,0)" xlink:href="#aJ"/><use transform="matrix(0.008680555555555552,0,0,0.008680555555555552,170.69444444444437,0)" xlink:href="#aK"/><use transform="matrix(0.008680555555555552,0,0,0.008680555555555552,181.36284722222217,0)" xlink:href="#aG"/><use transform="matrix(0.008680555555555552,0,0,0.008680555555555552,192.0312499999999,0)" xlink:href="#aL"/><use transform="matrix(0.008680555555555552,0,0,0.008680555555555552,202.6996527777777,0)" xlink:href="#aM"/></g><g id="m"><use transform="matrix(0.03703703703703702,0,0,0.03703703703703702,0,0)" xlink:href="#at"/><use transform="matrix(0.03703703703703702,0,0,0.03703703703703702,6.666666666666663,0)" xlink:href="#ac"/><use transform="matrix(0.03703703703703702,0,0,0.03703703703703702,14.074074074074067,0)" xlink:href="#ay"/><use transform="matrix(0.03703703703703702,0,0,0.03703703703703702,16.999999999999993,0)" xlink:href="#au"/><use transform="matrix(0.03703703703703702,0,0,0.03703703703703702,19.925925925925917,0)" xlink:href="#ai"/><use transform="matrix(0.03703703703703702,0,0,0.03703703703703702,27.33333333333332,0)" xlink:href="#ac"/><use transform="matrix(0.03703703703703702,0,0,0.03703703703703702,34.740740740740726,0)" xlink:href="#ag"/><use transform="matrix(0.03703703703703702,0,0,0.03703703703703702,38.44444444444443,0)" xlink:href="#af"/></g><path fill="#333" d="M68-38c1 34 0 65-14 84H32c9-13 17-26 17-46H33v-38h35" id="aT"/><g id="n"><use transform="matrix(0.03703703703703702,0,0,0.03703703703703702,0,0)" xlink:href="#ai"/><use transform="matrix(0.03703703703703702,0,0,0.03703703703703702,7.407407407407404,0)" xlink:href="#ac"/><use transform="matrix(0.03703703703703702,0,0,0.03703703703703702,14.814814814814808,0)" xlink:href="#ag"/><use transform="matrix(0.03703703703703702,0,0,0.03703703703703702,18.51851851851851,0)" xlink:href="#ac"/><use transform="matrix(0.03703703703703702,0,0,0.03703703703703702,25.925925925925913,0)" xlink:href="#aT"/></g><g id="o"><use transform="matrix(0.03703703703703702,0,0,0.03703703703703702,0,0)" xlink:href="#aw"/><use transform="matrix(0.03703703703703702,0,0,0.03703703703703702,6.666666666666663,0)" xlink:href="#ag"/><use transform="matrix(0.03703703703703702,0,0,0.03703703703703702,10.370370370370367,0)" xlink:href="#am"/><use transform="matrix(0.03703703703703702,0,0,0.03703703703703702,17.777777777777768,0)" xlink:href="#ad"/><use transform="matrix(0.03703703703703702,0,0,0.03703703703703702,22.185185185185173,0)" xlink:href="#af"/></g><g id="p"><use transform="matrix(0.03703703703703702,0,0,0.03703703703703702,0,0)" xlink:href="#au"/><use transform="matrix(0.03703703703703702,0,0,0.03703703703703702,2.9259259259259247,0)" xlink:href="#ar"/></g><path fill="#333" d="M160-131c35 5 61 23 61 61C221 17 115-2 30 0v-248c76 3 177-17 177 60 0 33-19 50-47 57zm-97-11c50-1 110 9 110-42 0-47-63-36-110-37v79zm0 115c55-2 124 14 124-45 0-56-70-42-124-44v89" id="aU"/><g id="q"><use transform="matrix(0.03703703703703702,0,0,0.03703703703703702,0,0)" xlink:href="#ap"/><use transform="matrix(0.03703703703703702,0,0,0.03703703703703702,9.592592592592588,0)" xlink:href="#aU"/><use transform="matrix(0.03703703703703702,0,0,0.03703703703703702,18.481481481481474,0)" xlink:href="#aT"/></g><g id="r"><use transform="matrix(0.03703703703703702,0,0,0.03703703703703702,0,0)" xlink:href="#ad"/><use transform="matrix(0.03703703703703702,0,0,0.03703703703703702,4.407407407407406,0)" xlink:href="#af"/><use transform="matrix(0.03703703703703702,0,0,0.03703703703703702,11.81481481481481,0)" xlink:href="#ag"/><use transform="matrix(0.03703703703703702,0,0,0.03703703703703702,15.518518518518512,0)" xlink:href="#aj"/><use transform="matrix(0.03703703703703702,0,0,0.03703703703703702,22.925925925925917,0)" xlink:href="#ad"/><use transform="matrix(0.03703703703703702,0,0,0.03703703703703702,27.33333333333332,0)" xlink:href="#ar"/></g><g id="s"><use transform="matrix(0.03703703703703702,0,0,0.03703703703703702,0,0)" xlink:href="#ac"/><use transform="matrix(0.03703703703703702,0,0,0.03703703703703702,7.407407407407404,0)" xlink:href="#aj"/><use transform="matrix(0.03703703703703702,0,0,0.03703703703703702,14.814814814814808,0)" xlink:href="#ag"/><use transform="matrix(0.03703703703703702,0,0,0.03703703703703702,18.51851851851851,0)" xlink:href="#ak"/><use transform="matrix(0.03703703703703702,0,0,0.03703703703703702,25.925925925925913,0)" xlink:href="#am"/><use transform="matrix(0.03703703703703702,0,0,0.03703703703703702,33.333333333333314,0)" xlink:href="#ad"/><use transform="matrix(0.03703703703703702,0,0,0.03703703703703702,37.74074074074072,0)" xlink:href="#au"/><use transform="matrix(0.03703703703703702,0,0,0.03703703703703702,40.66666666666664,0)" xlink:href="#az"/><use transform="matrix(0.03703703703703702,0,0,0.03703703703703702,47.33333333333331,0)" xlink:href="#ac"/><use transform="matrix(0.03703703703703702,0,0,0.03703703703703702,54.74074074074071,0)" xlink:href="#ag"/><use transform="matrix(0.03703703703703702,0,0,0.03703703703703702,58.44444444444441,0)" xlink:href="#au"/><use transform="matrix(0.03703703703703702,0,0,0.03703703703703702,61.37037037037034,0)" xlink:href="#am"/><use transform="matrix(0.03703703703703702,0,0,0.03703703703703702,68.77777777777774,0)" xlink:href="#ar"/></g><g id="t"><use transform="matrix(0.03703703703703702,0,0,0.03703703703703702,0,0)" xlink:href="#ai"/><use transform="matrix(0.03703703703703702,0,0,0.03703703703703702,7.407407407407404,0)" xlink:href="#af"/><use transform="matrix(0.03703703703703702,0,0,0.03703703703703702,14.814814814814808,0)" xlink:href="#ah"/><use transform="matrix(0.03703703703703702,0,0,0.03703703703703702,21.481481481481474,0)" xlink:href="#au"/><use transform="matrix(0.03703703703703702,0,0,0.03703703703703702,24.407407407407394,0)" xlink:href="#aw"/><use transform="matrix(0.03703703703703702,0,0,0.03703703703703702,31.074074074074055,0)" xlink:href="#au"/><use transform="matrix(0.03703703703703702,0,0,0.03703703703703702,33.999999999999986,0)" xlink:href="#am"/><use transform="matrix(0.03703703703703702,0,0,0.03703703703703702,41.40740740740739,0)" xlink:href="#ar"/></g><path fill="#333" d="M1018 0H810c-67-251-137-496-194-756C558-495 487-250 419 0H211L0-1349h189c48 393 110 772 142 1181 58-262 128-512 197-763h175c69 251 139 500 197 763 37-402 92-789 139-1181h189" id="aV"/><path fill="#333" d="M365-904c58-129 161-200 334-200 130 0 228 46 293 138s98 233 98 420c0 189-34 331-102 425S824 20 698 20c-170 0-275-64-336-184 0 55-3 116-9 164H179c5-68 6-147 6-223v-1261h180c-2 193 4 394-4 580h4zm283 791c221 0 256-197 256-427 0-229-34-425-254-425-236 0-285 195-285 441 0 237 53 411 283 411" id="aW"/><path fill="#333" d="M914 0L548-499l-132 98V0H236v-1484h180v927l475-525h211L663-617 1125 0H914" id="aX"/><g id="u"><use transform="matrix(0.008680555555555552,0,0,0.008680555555555552,0,0)" xlink:href="#aV"/><use transform="matrix(0.008680555555555552,0,0,0.008680555555555552,10.668402777777773,0)" xlink:href="#aL"/><use transform="matrix(0.008680555555555552,0,0,0.008680555555555552,21.336805555555546,0)" xlink:href="#aW"/><use transform="matrix(0.008680555555555552,0,0,0.008680555555555552,32.00520833333332,0)" xlink:href="#aD"/><use transform="matrix(0.008680555555555552,0,0,0.008680555555555552,42.67361111111109,0)" xlink:href="#aE"/><use transform="matrix(0.008680555555555552,0,0,0.008680555555555552,53.342013888888864,0)" xlink:href="#aE"/><use transform="matrix(0.008680555555555552,0,0,0.008680555555555552,64.01041666666664,0)" xlink:href="#aX"/><use transform="matrix(0.008680555555555552,0,0,0.008680555555555552,74.67881944444441,0)" xlink:href="#aK"/><use transform="matrix(0.008680555555555552,0,0,0.008680555555555552,85.34722222222219,0)" xlink:href="#aG"/><use transform="matrix(0.008680555555555552,0,0,0.008680555555555552,96.01562499999994,0)" xlink:href="#aL"/><use transform="matrix(0.008680555555555552,0,0,0.008680555555555552,106.68402777777773,0)" xlink:href="#aM"/></g><g id="v"><use transform="matrix(0.055555555555555546,0,0,0.055555555555555546,0,0)" xlink:href="#ag"/><use transform="matrix(0.055555555555555546,0,0,0.055555555555555546,5.5555555555555545,0)" xlink:href="#ad"/><use transform="matrix(0.055555555555555546,0,0,0.055555555555555546,12.166666666666664,0)" xlink:href="#ac"/><use transform="matrix(0.055555555555555546,0,0,0.055555555555555546,23.27777777777777,0)" xlink:href="#ar"/><use transform="matrix(0.055555555555555546,0,0,0.055555555555555546,34.38888888888888,0)" xlink:href="#aw"/><use transform="matrix(0.055555555555555546,0,0,0.055555555555555546,44.38888888888888,0)" xlink:href="#ac"/><use transform="matrix(0.055555555555555546,0,0,0.055555555555555546,55.499999999999986,0)" xlink:href="#ah"/><use transform="matrix(0.055555555555555546,0,0,0.055555555555555546,65.49999999999999,0)" xlink:href="#ag"/><use transform="matrix(0.055555555555555546,0,0,0.055555555555555546,71.05555555555554,0)" xlink:href="#au"/><use transform="matrix(0.055555555555555546,0,0,0.055555555555555546,75.44444444444443,0)" xlink:href="#am"/><use transform="matrix(0.055555555555555546,0,0,0.055555555555555546,86.55555555555554,0)" xlink:href="#ar"/></g><g id="w"><use transform="matrix(0.055555555555555546,0,0,0.055555555555555546,0,0)" xlink:href="#aw"/><use transform="matrix(0.055555555555555546,0,0,0.055555555555555546,9.999999999999998,0)" xlink:href="#ag"/><use transform="matrix(0.055555555555555546,0,0,0.055555555555555546,15.555555555555554,0)" xlink:href="#ac"/><use transform="matrix(0.055555555555555546,0,0,0.055555555555555546,26.666666666666664,0)" xlink:href="#ag"/><use transform="matrix(0.055555555555555546,0,0,0.055555555555555546,32.22222222222222,0)" xlink:href="#aj"/><use transform="matrix(0.055555555555555546,0,0,0.055555555555555546,43.33333333333333,0)" xlink:href="#aw"/></g><g id="x"><use transform="matrix(0.055555555555555546,0,0,0.055555555555555546,0,0)" xlink:href="#aj"/><use transform="matrix(0.055555555555555546,0,0,0.055555555555555546,11.111111111111109,0)" xlink:href="#al"/><use transform="matrix(0.055555555555555546,0,0,0.055555555555555546,22.222222222222218,0)" xlink:href="#ai"/><use transform="matrix(0.055555555555555546,0,0,0.055555555555555546,33.33333333333333,0)" xlink:href="#ac"/><use transform="matrix(0.055555555555555546,0,0,0.055555555555555546,44.444444444444436,0)" xlink:href="#ag"/><use transform="matrix(0.055555555555555546,0,0,0.055555555555555546,49.99999999999999,0)" xlink:href="#af"/><use transform="matrix(0.055555555555555546,0,0,0.055555555555555546,61.1111111111111,0)" xlink:href="#ai"/></g><g id="y"><use transform="matrix(0.055555555555555546,0,0,0.055555555555555546,0,0)" xlink:href="#as"/><use transform="matrix(0.055555555555555546,0,0,0.055555555555555546,11.111111111111109,0)" xlink:href="#af"/><use transform="matrix(0.055555555555555546,0,0,0.055555555555555546,22.222222222222218,0)" xlink:href="#ag"/></g><g id="z"><use transform="matrix(0.055555555555555546,0,0,0.055555555555555546,0,0)" xlink:href="#ag"/><use transform="matrix(0.055555555555555546,0,0,0.055555555555555546,5.5555555555555545,0)" xlink:href="#ad"/><use transform="matrix(0.055555555555555546,0,0,0.055555555555555546,12.166666666666664,0)" xlink:href="#ac"/><use transform="matrix(0.055555555555555546,0,0,0.055555555555555546,23.27777777777777,0)" xlink:href="#ar"/><use transform="matrix(0.055555555555555546,0,0,0.055555555555555546,34.38888888888888,0)" xlink:href="#aw"/><use transform="matrix(0.055555555555555546,0,0,0.055555555555555546,44.38888888888888,0)" xlink:href="#ac"/><use transform="matrix(0.055555555555555546,0,0,0.055555555555555546,55.499999999999986,0)" xlink:href="#ah"/><use transform="matrix(0.055555555555555546,0,0,0.055555555555555546,65.49999999999999,0)" xlink:href="#ag"/><use transform="matrix(0.055555555555555546,0,0,0.055555555555555546,71.05555555555554,0)" xlink:href="#au"/><use transform="matrix(0.055555555555555546,0,0,0.055555555555555546,75.44444444444443,0)" xlink:href="#am"/><use transform="matrix(0.055555555555555546,0,0,0.055555555555555546,86.55555555555554,0)" xlink:href="#ar"/></g><g id="A"><use transform="matrix(0.055555555555555546,0,0,0.055555555555555546,0,0)" xlink:href="#ai"/><use transform="matrix(0.055555555555555546,0,0,0.055555555555555546,11.111111111111109,0)" xlink:href="#ac"/><use transform="matrix(0.055555555555555546,0,0,0.055555555555555546,22.222222222222218,0)" xlink:href="#ag"/><use transform="matrix(0.055555555555555546,0,0,0.055555555555555546,27.77777777777777,0)" xlink:href="#ac"/></g><path fill="#333" d="M27 0v-27h64v-190l-56 39v-29l58-41h29v221h61V0H27" id="aY"/><path fill="#333" d="M101-251c68 0 85 55 85 127S166 4 100 4C33 4 14-52 14-124c0-73 17-127 87-127zm-1 229c47 0 54-49 54-102s-4-102-53-102c-51 0-55 48-55 102 0 53 5 102 54 102" id="aZ"/><g id="B"><use transform="matrix(0.055555555555555546,0,0,0.055555555555555546,5.5555555555555545,0)" xlink:href="#aY"/><use transform="matrix(0.055555555555555546,0,0,0.055555555555555546,16.666666666666664,0)" xlink:href="#aZ"/><use transform="matrix(0.055555555555555546,0,0,0.055555555555555546,27.77777777777777,0)" xlink:href="#aw"/></g><g id="C"><use transform="matrix(0.055555555555555546,0,0,0.055555555555555546,0,0)" xlink:href="#ai"/><use transform="matrix(0.055555555555555546,0,0,0.055555555555555546,11.111111111111109,0)" xlink:href="#af"/><use transform="matrix(0.055555555555555546,0,0,0.055555555555555546,22.222222222222218,0)" xlink:href="#ay"/><use transform="matrix(0.055555555555555546,0,0,0.055555555555555546,26.611111111111107,0)" xlink:href="#ac"/><use transform="matrix(0.055555555555555546,0,0,0.055555555555555546,37.722222222222214,0)" xlink:href="#ao"/></g><path fill="#333" d="M285-1169c8 382 2 780 4 1169H129v-1349h237c86 239 188 461 253 720 69-258 169-481 255-720h225V0H937c2-390-5-788 6-1169-75 255-170 488-259 729H547c-90-240-185-475-262-729" id="ba"/><path fill="#333" d="M530 26c-303-6-392-228-392-558 0-187 33-329 98-424s162-142 293-142c178 0 273 69 334 184 1-56 3-122 12-169h175c-6 88-6 180-6 282V425H863c1-202-4-411 4-607h-2C805-59 713 29 530 26zm47-139c234 0 286-193 286-441 0-238-55-411-284-411-223 0-255 198-255 427 0 227 33 425 253 425" id="bb"/><path fill="#333" d="M873-819c-18-114-119-146-250-146-163 0-245 50-245 151 0 151 170 148 294 185 182 54 388 94 388 320 0 240-189 325-439 329-245 4-410-69-454-268l159-31c24 133 136 168 295 165 144-2 270-31 270-171 0-164-195-160-331-202-167-52-350-87-350-299 0-218 173-315 413-313 220 2 373 77 412 260" id="bc"/><path fill="#333" d="M631 20c-350 0-501-215-501-562 0-355 162-560 502-560 250 0 399 118 446 323l-192 14c-23-124-109-196-262-196-242 0-305 171-305 415 1 245 61 427 304 427 151 0 248-77 267-215l190 12C1039-107 883 20 631 20" id="bd"/><g id="D"><use transform="matrix(0.008680555555555556,0,0,0.008680555555555556,0,0)" xlink:href="#ba"/><use transform="matrix(0.008680555555555556,0,0,0.008680555555555556,10.668402777777779,0)" xlink:href="#aI"/><use transform="matrix(0.008680555555555556,0,0,0.008680555555555556,21.336805555555557,0)" xlink:href="#aF"/><use transform="matrix(0.008680555555555556,0,0,0.008680555555555556,32.005208333333336,0)" xlink:href="#bb"/><use transform="matrix(0.008680555555555556,0,0,0.008680555555555556,42.673611111111114,0)" xlink:href="#aL"/><use transform="matrix(0.008680555555555556,0,0,0.008680555555555556,53.34201388888889,0)" xlink:href="#aC"/><use transform="matrix(0.008680555555555556,0,0,0.008680555555555556,64.01041666666667,0)" xlink:href="#aI"/><use transform="matrix(0.008680555555555556,0,0,0.008680555555555556,74.67881944444446,0)" xlink:href="#aS"/><use transform="matrix(0.008680555555555556,0,0,0.008680555555555556,85.34722222222223,0)" xlink:href="#aF"/><use transform="matrix(0.008680555555555556,0,0,0.008680555555555556,96.015625,0)" xlink:href="#aI"/><use transform="matrix(0.008680555555555556,0,0,0.008680555555555556,106.68402777777777,0)" xlink:href="#aJ"/><use transform="matrix(0.008680555555555556,0,0,0.008680555555555556,117.35243055555554,0)" xlink:href="#bc"/><use transform="matrix(0.008680555555555556,0,0,0.008680555555555556,128.02083333333331,0)" xlink:href="#aI"/><use transform="matrix(0.008680555555555556,0,0,0.008680555555555556,138.6892361111111,0)" xlink:href="#bd"/><use transform="matrix(0.008680555555555556,0,0,0.008680555555555556,149.35763888888886,0)" xlink:href="#aC"/><use transform="matrix(0.008680555555555556,0,0,0.008680555555555556,160.02604166666663,0)" xlink:href="#aG"/><use transform="matrix(0.008680555555555556,0,0,0.008680555555555556,170.6944444444444,0)" xlink:href="#aE"/><use transform="matrix(0.008680555555555556,0,0,0.008680555555555556,181.36284722222217,0)" xlink:href="#aJ"/></g><path fill="#333" d="M622-1349c296 4 497 117 497 404 0 282-193 424-485 431H353V0H162v-1349h460zm-15 684c195-3 320-88 320-277 0-184-129-255-328-254H353v531h254" id="be"/><g id="E"><use transform="matrix(0.008680555555555556,0,0,0.008680555555555556,0,0)" xlink:href="#be"/><use transform="matrix(0.008680555555555556,0,0,0.008680555555555556,10.668402777777779,0)" xlink:href="#aF"/><use transform="matrix(0.008680555555555556,0,0,0.008680555555555556,21.336805555555557,0)" xlink:href="#aE"/><use transform="matrix(0.008680555555555556,0,0,0.008680555555555556,32.005208333333336,0)" xlink:href="#bd"/><use transform="matrix(0.008680555555555556,0,0,0.008680555555555556,42.673611111111114,0)" xlink:href="#aL"/><use transform="matrix(0.008680555555555556,0,0,0.008680555555555556,53.34201388888889,0)" xlink:href="#bc"/><use transform="matrix(0.008680555555555556,0,0,0.008680555555555556,64.01041666666667,0)" xlink:href="#bc"/><use transform="matrix(0.008680555555555556,0,0,0.008680555555555556,74.67881944444446,0)" xlink:href="#aS"/><use transform="matrix(0.008680555555555556,0,0,0.008680555555555556,85.34722222222223,0)" xlink:href="#aI"/><use transform="matrix(0.008680555555555556,0,0,0.008680555555555556,96.015625,0)" xlink:href="#bc"/><use transform="matrix(0.008680555555555556,0,0,0.008680555555555556,106.68402777777777,0)" xlink:href="#aX"/></g><path fill="#333" d="M16-82v-28h88v28H16" id="bf"/><use transform="matrix(0.04320987654320988,0,0,0.04320987654320988,0,0)" xlink:href="#bf" id="G"/><path fill="#333" d="M143 0L79-87 56-68V0H24v-261h32v163l83-92h37l-77 82L181 0h-38" id="bg"/><g id="H"><use transform="matrix(0.04320987654320988,0,0,0.04320987654320988,0,0)" xlink:href="#ah"/><use transform="matrix(0.04320987654320988,0,0,0.04320987654320988,7.777777777777779,0)" xlink:href="#ak"/><use transform="matrix(0.04320987654320988,0,0,0.04320987654320988,16.419753086419753,0)" xlink:href="#af"/><use transform="matrix(0.04320987654320988,0,0,0.04320987654320988,25.061728395061728,0)" xlink:href="#ah"/><use transform="matrix(0.04320987654320988,0,0,0.04320987654320988,32.839506172839506,0)" xlink:href="#bg"/></g><path fill="#333" d="M101-234c-31-9-42 10-38 44h38v23H63V0H32v-167H5v-23h27c-7-52 17-82 69-68v24" id="bh"/><g id="I"><use transform="matrix(0.04320987654320988,0,0,0.04320987654320988,0,0)" xlink:href="#au"/><use transform="matrix(0.04320987654320988,0,0,0.04320987654320988,3.4135802469135808,0)" xlink:href="#bh"/></g><g id="J"><use transform="matrix(0.04320987654320988,0,0,0.04320987654320988,0,0)" xlink:href="#ag"/><use transform="matrix(0.04320987654320988,0,0,0.04320987654320988,4.320987654320988,0)" xlink:href="#ad"/><use transform="matrix(0.04320987654320988,0,0,0.04320987654320988,9.462962962962964,0)" xlink:href="#an"/></g><g id="K"><use transform="matrix(0.04320987654320988,0,0,0.04320987654320988,0,0)" xlink:href="#aw"/><use transform="matrix(0.04320987654320988,0,0,0.04320987654320988,7.777777777777779,0)" xlink:href="#ag"/><use transform="matrix(0.04320987654320988,0,0,0.04320987654320988,12.098765432098766,0)" xlink:href="#au"/><use transform="matrix(0.04320987654320988,0,0,0.04320987654320988,15.512345679012347,0)" xlink:href="#ay"/><use transform="matrix(0.04320987654320988,0,0,0.04320987654320988,18.925925925925927,0)" xlink:href="#ay"/></g><g id="L"><use transform="matrix(0.04320987654320988,0,0,0.04320987654320988,0,0)" xlink:href="#ar"/><use transform="matrix(0.04320987654320988,0,0,0.04320987654320988,8.641975308641976,0)" xlink:href="#af"/><use transform="matrix(0.04320987654320988,0,0,0.04320987654320988,17.283950617283953,0)" xlink:href="#af"/><use transform="matrix(0.04320987654320988,0,0,0.04320987654320988,25.925925925925927,0)" xlink:href="#ai"/><use transform="matrix(0.04320987654320988,0,0,0.04320987654320988,34.567901234567906,0)" xlink:href="#aw"/></g><g id="M"><use transform="matrix(0.04320987654320988,0,0,0.04320987654320988,0,0)" xlink:href="#at"/><use transform="matrix(0.04320987654320988,0,0,0.04320987654320988,7.777777777777779,0)" xlink:href="#af"/><use transform="matrix(0.04320987654320988,0,0,0.04320987654320988,16.419753086419753,0)" xlink:href="#ad"/><use transform="matrix(0.04320987654320988,0,0,0.04320987654320988,21.561728395061728,0)" xlink:href="#au"/><use transform="matrix(0.04320987654320988,0,0,0.04320987654320988,24.97530864197531,0)" xlink:href="#bh"/><use transform="matrix(0.04320987654320988,0,0,0.04320987654320988,29.296296296296298,0)" xlink:href="#au"/><use transform="matrix(0.04320987654320988,0,0,0.04320987654320988,32.70987654320988,0)" xlink:href="#ah"/><use transform="matrix(0.04320987654320988,0,0,0.04320987654320988,40.48765432098766,0)" xlink:href="#ac"/><use transform="matrix(0.04320987654320988,0,0,0.04320987654320988,49.12962962962963,0)" xlink:href="#ag"/><use transform="matrix(0.04320987654320988,0,0,0.04320987654320988,53.45061728395062,0)" xlink:href="#au"/><use transform="matrix(0.04320987654320988,0,0,0.04320987654320988,56.8641975308642,0)" xlink:href="#am"/><use transform="matrix(0.04320987654320988,0,0,0.04320987654320988,65.50617283950618,0)" xlink:href="#ar"/></g><path fill="#333" d="M334-464v-160h560v160H334" id="bi"/><use transform="matrix(0.007595486111111112,0,0,0.007595486111111112,0,0)" xlink:href="#bi" id="N"/><g id="O"><use transform="matrix(0.04320987654320988,0,0,0.04320987654320988,0,0)" xlink:href="#aj"/><use transform="matrix(0.04320987654320988,0,0,0.04320987654320988,8.641975308641976,0)" xlink:href="#al"/><use transform="matrix(0.04320987654320988,0,0,0.04320987654320988,17.283950617283953,0)" xlink:href="#ai"/><use transform="matrix(0.04320987654320988,0,0,0.04320987654320988,25.925925925925927,0)" xlink:href="#ac"/><use transform="matrix(0.04320987654320988,0,0,0.04320987654320988,34.567901234567906,0)" xlink:href="#ag"/><use transform="matrix(0.04320987654320988,0,0,0.04320987654320988,38.88888888888889,0)" xlink:href="#af"/></g><g id="P"><use transform="matrix(0.04320987654320988,0,0,0.04320987654320988,0,0)" xlink:href="#aw"/><use transform="matrix(0.04320987654320988,0,0,0.04320987654320988,7.777777777777779,0)" xlink:href="#ag"/><use transform="matrix(0.04320987654320988,0,0,0.04320987654320988,12.098765432098766,0)" xlink:href="#ac"/><use transform="matrix(0.04320987654320988,0,0,0.04320987654320988,20.74074074074074,0)" xlink:href="#ag"/><use transform="matrix(0.04320987654320988,0,0,0.04320987654320988,25.061728395061728,0)" xlink:href="#aj"/><use transform="matrix(0.04320987654320988,0,0,0.04320987654320988,33.7037037037037,0)" xlink:href="#aw"/></g><path fill="#333" d="M115-194c53 0 69 39 70 98 0 66-23 100-70 100C84 3 66-7 56-30L54 0H23l1-261h32v101c10-23 28-34 59-34zm-8 174c40 0 45-34 45-75 0-40-5-75-45-74-42 0-51 32-51 76 0 43 10 73 51 73" id="bj"/><g id="Q"><use transform="matrix(0.04320987654320988,0,0,0.04320987654320988,0,0)" xlink:href="#bj"/><use transform="matrix(0.04320987654320988,0,0,0.04320987654320988,8.641975308641976,0)" xlink:href="#ac"/><use transform="matrix(0.04320987654320988,0,0,0.04320987654320988,17.283950617283953,0)" xlink:href="#aw"/><use transform="matrix(0.04320987654320988,0,0,0.04320987654320988,25.06172839506173,0)" xlink:href="#af"/><use transform="matrix(0.04320987654320988,0,0,0.04320987654320988,33.70370370370371,0)" xlink:href="#ai"/></g><g id="R"><use transform="matrix(0.04320987654320988,0,0,0.04320987654320988,0,0)" xlink:href="#am"/><use transform="matrix(0.04320987654320988,0,0,0.04320987654320988,8.641975308641976,0)" xlink:href="#ar"/></g><g id="S"><use transform="matrix(0.04320987654320988,0,0,0.04320987654320988,0,0)" xlink:href="#bh"/><use transform="matrix(0.04320987654320988,0,0,0.04320987654320988,4.320987654320988,0)" xlink:href="#ad"/><use transform="matrix(0.04320987654320988,0,0,0.04320987654320988,9.462962962962964,0)" xlink:href="#af"/><use transform="matrix(0.04320987654320988,0,0,0.04320987654320988,18.10493827160494,0)" xlink:href="#aw"/><use transform="matrix(0.04320987654320988,0,0,0.04320987654320988,25.88271604938272,0)" xlink:href="#ak"/></g><g id="T"><use transform="matrix(0.04320987654320988,0,0,0.04320987654320988,0,0)" xlink:href="#ai"/><use transform="matrix(0.04320987654320988,0,0,0.04320987654320988,8.641975308641976,0)" xlink:href="#ac"/><use transform="matrix(0.04320987654320988,0,0,0.04320987654320988,17.283950617283953,0)" xlink:href="#ag"/><use transform="matrix(0.04320987654320988,0,0,0.04320987654320988,21.60493827160494,0)" xlink:href="#ac"/></g><path fill="#333" d="M210-169c-67 3-38 105-44 169h-31v-121c0-29-5-50-35-48C34-165 62-65 56 0H25l-1-190h30c1 10-1 24 2 32 10-44 99-50 107 0 11-21 27-35 58-36 85-2 47 119 55 194h-31v-121c0-29-5-49-35-48" id="bk"/><g id="U"><use transform="matrix(0.04320987654320988,0,0,0.04320987654320988,0,0)" xlink:href="#bh"/><use transform="matrix(0.04320987654320988,0,0,0.04320987654320988,4.320987654320988,0)" xlink:href="#ad"/><use transform="matrix(0.04320987654320988,0,0,0.04320987654320988,9.462962962962964,0)" xlink:href="#am"/><use transform="matrix(0.04320987654320988,0,0,0.04320987654320988,18.10493827160494,0)" xlink:href="#bk"/></g><g id="V"><use transform="matrix(0.04320987654320988,0,0,0.04320987654320988,0,0)" xlink:href="#ab"/><use transform="matrix(0.04320987654320988,0,0,0.04320987654320988,12.919753086419755,0)" xlink:href="#ac"/><use transform="matrix(0.04320987654320988,0,0,0.04320987654320988,21.56172839506173,0)" xlink:href="#ad"/><use transform="matrix(0.04320987654320988,0,0,0.04320987654320988,26.703703703703706,0)" xlink:href="#ae"/><use transform="matrix(0.04320987654320988,0,0,0.04320987654320988,35.345679012345684,0)" xlink:href="#af"/><use transform="matrix(0.04320987654320988,0,0,0.04320987654320988,43.98765432098766,0)" xlink:href="#ag"/><use transform="matrix(0.04320987654320988,0,0,0.04320987654320988,48.308641975308646,0)" xlink:href="#ac"/></g><use transform="matrix(0.04320987654320988,0,0,0.04320987654320988,0,0)" xlink:href="#bf" id="W"/><g id="X"><use transform="matrix(0.04320987654320988,0,0,0.04320987654320988,0,0)" xlink:href="#aw"/><use transform="matrix(0.04320987654320988,0,0,0.04320987654320988,7.777777777777779,0)" xlink:href="#af"/><use transform="matrix(0.04320987654320988,0,0,0.04320987654320988,16.419753086419753,0)" xlink:href="#ag"/></g><path fill="#333" d="M865-914c-3-187-2-380-2-570h180v1261c0 76 1 155 6 223H877c-8-49-9-116-10-174h-5C801-44 708 26 530 26c-135 0-234-46-297-139s-95-232-95-419c0-377 131-566 392-566 176 0 271 63 335 184zm-286-51c-222 0-255 197-255 427 0 229 31 425 253 425 237 0 286-195 286-441 0-238-52-411-284-411" id="bl"/><path fill="#333" d="M715 0H502L69-1082h202c94 253 197 500 285 758 19 57 36 126 52 183 96-335 234-626 350-941h201" id="bm"/><path fill="#333" d="M839-1335c-182-6-269 67-259 253h491v142H580V0H400v-940H138v-142h262c-15-293 132-408 418-402 94 2 200 7 281 21v145c-75-10-177-14-260-17" id="bn"/><g id="Y"><use transform="matrix(0.007595486111111112,0,0,0.007595486111111112,0,0)" xlink:href="#bl"/><use transform="matrix(0.007595486111111112,0,0,0.007595486111111112,9.334852430555557,0)" xlink:href="#aI"/><use transform="matrix(0.007595486111111112,0,0,0.007595486111111112,18.669704861111114,0)" xlink:href="#aC"/><use transform="matrix(0.007595486111111112,0,0,0.007595486111111112,28.00455729166667,0)" xlink:href="#aL"/><use transform="matrix(0.007595486111111112,0,0,0.007595486111111112,37.33940972222223,0)" xlink:href="#aO"/><use transform="matrix(0.007595486111111112,0,0,0.007595486111111112,46.674262152777786,0)" xlink:href="#bm"/><use transform="matrix(0.007595486111111112,0,0,0.007595486111111112,56.00911458333334,0)" xlink:href="#aL"/><use transform="matrix(0.007595486111111112,0,0,0.007595486111111112,65.3439670138889,0)" xlink:href="#aF"/><use transform="matrix(0.007595486111111112,0,0,0.007595486111111112,74.67881944444446,0)" xlink:href="#aG"/><use transform="matrix(0.007595486111111112,0,0,0.007595486111111112,84.01367187500001,0)" xlink:href="#bn"/><use transform="matrix(0.007595486111111112,0,0,0.007595486111111112,93.34852430555557,0)" xlink:href="#aG"/><use transform="matrix(0.007595486111111112,0,0,0.007595486111111112,102.68337673611113,0)" xlink:href="#aL"/><use transform="matrix(0.007595486111111112,0,0,0.007595486111111112,112.01822916666669,0)" xlink:href="#bl"/></g><g id="Z"><use transform="matrix(0.04320987654320988,0,0,0.04320987654320988,0,0)" xlink:href="#ah"/><use transform="matrix(0.04320987654320988,0,0,0.04320987654320988,7.777777777777779,0)" xlink:href="#ac"/><use transform="matrix(0.04320987654320988,0,0,0.04320987654320988,16.419753086419753,0)" xlink:href="#ay"/><use transform="matrix(0.04320987654320988,0,0,0.04320987654320988,19.833333333333336,0)" xlink:href="#ay"/></g><path fill="#333" d="M698-1104c312 3 392 244 392 558 0 315-82 566-392 566-169 0-277-65-331-184h-5c8 188 2 394 4 589H185V-858c0-76-1-156-6-224h175c6 52 9 120 10 178h4c58-122 150-202 330-200zm-49 991c225 0 255-203 255-433 0-225-32-419-253-419-236 0-285 192-285 441 0 237 53 411 283 411" id="bo"/><g id="aa"><use transform="matrix(0.007595486111111112,0,0,0.007595486111111112,0,0)" xlink:href="#bo"/><use transform="matrix(0.007595486111111112,0,0,0.007595486111111112,9.334852430555557,0)" xlink:href="#aF"/><use transform="matrix(0.007595486111111112,0,0,0.007595486111111112,18.669704861111114,0)" xlink:href="#aE"/><use transform="matrix(0.007595486111111112,0,0,0.007595486111111112,28.00455729166667,0)" xlink:href="#bd"/><use transform="matrix(0.007595486111111112,0,0,0.007595486111111112,37.33940972222223,0)" xlink:href="#aL"/><use transform="matrix(0.007595486111111112,0,0,0.007595486111111112,46.674262152777786,0)" xlink:href="#bc"/><use transform="matrix(0.007595486111111112,0,0,0.007595486111111112,56.00911458333334,0)" xlink:href="#bc"/><use transform="matrix(0.007595486111111112,0,0,0.007595486111111112,65.3439670138889,0)" xlink:href="#aO"/><use transform="matrix(0.007595486111111112,0,0,0.007595486111111112,74.67881944444446,0)" xlink:href="#aC"/><use transform="matrix(0.007595486111111112,0,0,0.007595486111111112,84.01367187500001,0)" xlink:href="#aF"/><use transform="matrix(0.007595486111111112,0,0,0.007595486111111112,93.34852430555557,0)" xlink:href="#aI"/><use transform="matrix(0.007595486111111112,0,0,0.007595486111111112,102.68337673611113,0)" xlink:href="#aJ"/><use transform="matrix(0.007595486111111112,0,0,0.007595486111111112,112.01822916666669,0)" xlink:href="#bc"/><use transform="matrix(0.007595486111111112,0,0,0.007595486111111112,121.35308159722224,0)" xlink:href="#aI"/><use transform="matrix(0.007595486111111112,0,0,0.007595486111111112,130.6879340277778,0)" xlink:href="#bd"/><use transform="matrix(0.007595486111111112,0,0,0.007595486111111112,140.02278645833337,0)" xlink:href="#aC"/><use transform="matrix(0.007595486111111112,0,0,0.007595486111111112,149.3576388888889,0)" xlink:href="#aG"/><use transform="matrix(0.007595486111111112,0,0,0.007595486111111112,158.69249131944446,0)" xlink:href="#aE"/><use transform="matrix(0.007595486111111112,0,0,0.007595486111111112,168.02734375,0)" xlink:href="#aJ"/></g></defs></g></svg>